<?xml version="1.0" encoding="UTF-8" standalone="no"?>
<!-- Generator: Adobe Illustrator 23.0.1, SVG Export Plug-In . SVG Version: 6.00 Build 0)  -->
<svg version="1.1" id="Layer_1" x="0px" y="0px" viewBox="0 0 100 100" style="enable-background:new 0 0 100 100;" xml:space="preserve">
  <path d="m 38.277556,43.923286 c -4.405487,-0.0031 -7.930464,0.0051 -9.686265,0.03595 -7.023218,0.123538 -12.316786,6.372296 -12.272637,12.272628 0.04418,5.900329 -0.01224,29.317964 0,36.81788 0.01224,7.499936 4.607878,12.311176 12.272637,12.272636 7.664757,-0.0385 42.412959,-0.0865 49.09051,0 6.677552,0.0866 12.202964,-5.466737 12.272625,-12.272636 0.06962,-6.805894 -0.0086,-29.43577 0,-36.81788 0.0086,-7.382109 -5.540388,-12.386105 -12.272625,-12.272628 -5.049172,0.0851 -26.187793,-0.02673 -39.404245,-0.03595 z m 14.858984,6.17227 a 15.340787,15.340787 0 0 1 15.34079,15.340785 15.340787,15.340787 0 0 1 -8.125826,13.516671 l 5.057673,20.23306 H 40.863915 l 5.057663,-20.23306 A 15.340787,15.340787 0 0 1 37.795762,65.436341 15.340787,15.340787 0 0 1 53.13654,50.095556 Z"/>
  <path d="m 28.146316,46.85023 a 25.885929,25.885929 0 0 1 10.156329,-27.904283 25.885929,25.885929 0 0 1 29.695118,1e-6 25.885929,25.885929 0 0 1 10.156328,27.904283"/>
</svg>
